# xmcd
#
# Track frame offsets: 
#        150
#        19036
#        40641
#        64069
#        76874
#        102988
#        120837
#        138128
#        160044
#        179541
#        197801
#        216785
#        227571
#        241880
#
# Disc length: 3563 seconds
#
# Revision: 0
# Processed by: cddbd v1.5.2PL0 Copyright (c) Steve Scherf et al.
# Submitted via: ExactAudioCopy v1.0b3
#
DISCID=a80de90e
DTITLE=Chris Farlowe - Glory Bound
DYEAR=2000
DGENRE=Blues
TTITLE0=Wide Open
TTITLE1=Blues as Blues Can Get
TTITLE2=Miss You Fever
TTITLE3=Don't Wanna Live Without You
TTITLE4=Shaky Ground
TTITLE5=Glory Bound
TTITLE6=Don't Think I Will
TTITLE7=My Best Friends Girl
TTITLE8=Tough on Me Tough on You
TTITLE9=Gangster of Love
TTITLE10=Cry to Me
TTITLE11=I Think it's Gonna Rain Today
TTITLE12=Feel the Power of Love [Bonus Track]
TTITLE13=Handbags and Gladrags [Bonus Track - Live]
EXTD=
EXTT0=
EXTT1=
EXTT2=
EXTT3=
EXTT4=
EXTT5=
EXTT6=
EXTT7=
EXTT8=
EXTT9=
EXTT10=
EXTT11=
EXTT12=
EXTT13=
PLAYORDER=
